<svg
  xmlns="http://www.w3.org/2000/svg"
  viewBox="0 0 208.11 302.92"
  width="24"
  height="24"
  preserveAspectRatio="xMidYMid meet"
>
  <defs>
    <linearGradient id="mainGradient" x1="0%" y1="100%" x2="100%" y2="0%">
      <stop offset="0%" stop-color="#2de1fe" />
      <stop offset="50%" stop-color="#6849fe" />
      <stop offset="100%" stop-color="#9d21fe" />
    </linearGradient>
  </defs>

  <g fill="url(#mainGradient)">
    <path d="M203.2,96.06l-.88-.88L108.73,1.59a7.06,7.06,0,0,0-8.85,0L5.72,95.69A17.38,17.38,0,0,0,0,108.39V244a16.41,16.41,0,0,0,4.6,11.4l39.26,41.65V198.8a2.92,2.92,0,0,1,5-2.07L150.49,301.26a6.48,6.48,0,0,0,8.65,0l45.69-47.35a11.69,11.69,0,0,0,3.27-8.11V107.93a16.78,16.78,0,0,0-4.91-11.87Zm-35,144.29A8.6,8.6,0,0,1,159.9,249a6.34,6.34,0,0,1-4.61-1.6L47,139a15.89,15.89,0,0,1,.22-22.48L98.72,65a7.37,7.37,0,0,1,10.42-.11l57.67,58.55a8.36,8.36,0,0,1,2.4,6l-1.05,110.92Z"/>
    <circle cx="104.06" cy="151.46" r="19.39"/>
  </g>
</svg>